<svg width="116" height="28" xmlns="http://www.w3.org/2000/svg"><g fill="none" fill-rule="evenodd"><path d="M11.067 19.933c.42.704.634 1.607.634 2.686v.876c0 1.412-.402 2.528-1.192 3.318C9.72 27.6 8.62 28 7.24 28H4.483c-1.38 0-2.479-.4-3.267-1.187-.791-.79-1.19-1.906-1.19-3.318v-1.327h3.733v1.017c0 .568.1.965.296 1.15.139.132.462.29 1.213.29h1.189c.584 0 .987-.106 1.196-.313.205-.203.313-.637.313-1.256v-.31c0-.407-.157-.71-.478-.928-.356-.24-.814-.387-1.358-.434a15.98 15.98 0 0 1-1.94-.302 12.524 12.524 0 0 1-1.95-.58c-.643-.256-1.185-.753-1.61-1.483C.21 18.3 0 17.372 0 16.26v-.904c0-1.412.4-2.528 1.19-3.318.79-.787 1.889-1.187 3.27-1.187h2.527c1.396 0 2.504.4 3.293 1.187.792.79 1.193 1.906 1.193 3.318v1.299H7.738v-.963c0-.584-.103-.99-.296-1.176-.138-.132-.463-.29-1.213-.29h-.987c-.603 0-1.024.11-1.212.315-.136.15-.297.507-.297 1.383v.491c0 .24 0 .97 1.835 1.13 1.452.122 2.764.425 3.896.897.643.282 1.18.783 1.603 1.491zm4.394-5.283h-2.32v-3.623h2.32V6.842h4.097l.002 4.185h3.576v3.623H19.56l-.002 7.644c0 .68.15 1.168.451 1.466.302.296.795.444 1.484.444h1.966v3.624h-2.643c-1.699 0-3.015-.461-3.95-1.383-.936-.922-1.404-2.241-1.404-3.954l-.001-7.841zm19.302 7.05l.002-7.05h-3.42c-.687 0-1.171.147-1.451.444-.279.297-.418.796-.418 1.499v5.668c0 .703.139 1.201.418 1.499.28.296.764.444 1.451.444h1.193c1.483 0 2.225-.835 2.225-2.504zm-3.288 6.128H30.7c-1.7 0-3.01-.461-3.933-1.384-.925-.922-1.387-2.25-1.387-3.986v-6.062c0-1.735.462-3.065 1.387-3.987.923-.922 2.234-1.382 3.933-1.382h8.16v16.8h-4.098V26.05h-.13c-.235.593-.653 1.038-1.256 1.335a4.254 4.254 0 0 1-1.902.444zM84.326 21.7l.002-7.05h-3.42c-.687 0-1.172.147-1.451.444-.28.297-.418.796-.418 1.499v5.668c0 .703.139 1.201.418 1.499.28.296.764.444 1.451.444h1.193c1.483 0 2.225-.835 2.225-2.504zm-3.289 6.128h-.773c-1.7 0-3.01-.461-3.934-1.384-.925-.922-1.386-2.25-1.386-3.986v-6.062c0-1.735.461-3.065 1.386-3.987.923-.922 2.235-1.382 3.934-1.382h8.159v16.8h-4.097V26.05h-.13c-.236.593-.654 1.038-1.256 1.335a4.253 4.253 0 0 1-1.903.444zM67.987 21.7v-4.546c0-1.67-.741-2.504-2.224-2.504h-1.45c-.689 0-1.174.147-1.453.444-.277.297-.418.796-.418 1.499v5.668c0 .703.14 1.201.418 1.499.28.296.764.444 1.452.444h1.451c1.483 0 2.224-.835 2.224-2.504zm-3.288 6.128h-1.322c-1.656 0-2.908-.461-3.758-1.384-.849-.922-1.272-2.25-1.272-3.986v-6.062c0-1.735.423-3.065 1.272-3.987.85-.922 2.102-1.382 3.758-1.382H64.7c.666 0 1.301.146 1.903.444.6.296 1.02.741 1.258 1.334h.127V4.667h4.096v23.16h-4.096V26.05h-.127c-.237.593-.658 1.038-1.258 1.335a4.248 4.248 0 0 1-1.903.444zm47.205-6.128v-4.546c0-1.67-.741-2.504-2.224-2.504h-1.45c-.69 0-1.174.147-1.453.444-.278.297-.418.796-.418 1.499v5.668c0 .703.14 1.201.418 1.499.279.296.764.444 1.452.444h1.451c1.483 0 2.224-.835 2.224-2.504zm-3.288 6.128h-1.322c-1.655 0-2.909-.461-3.758-1.384-.849-.922-1.272-2.25-1.272-3.986v-6.062c0-1.735.423-3.065 1.272-3.987.85-.922 2.103-1.382 3.758-1.382h1.322c.666 0 1.3.146 1.903.444.6.296 1.02.741 1.257 1.334h.128V4.667H116v23.16h-4.096V26.05h-.128c-.237.593-.657 1.038-1.257 1.335a4.248 4.248 0 0 1-1.903.444zm-12.947 0h-4.096V11.027h4.095v1.81h.13c.237-.592.655-1.042 1.257-1.35a4.115 4.115 0 0 1 1.902-.46h1.805v3.623h-2.868c-1.483 0-2.226.856-2.226 2.568v10.61zm-49.564 0H42.01V11.027h4.095v1.777h.129c.473-1.185 1.527-1.777 3.16-1.777h1.033c3.374 0 5.062 1.79 5.062 5.37v11.43h-4.097V16.594c0-.703-.144-1.201-.433-1.498-.291-.298-.78-.445-1.467-.445H48.33c-1.483 0-2.225.834-2.225 2.504v10.674z" fill="#91999F"/><path fill="#ED2A37" d="M48.14 0l-6.38 4.73v4.603l6.38-4.729 6.38 4.73V4.728z"/></g></svg>